<svg fill="none" height="33" viewBox="0 0 236 33" width="236" xmlns="http://www.w3.org/2000/svg" xmlns:xlink="http://www.w3.org/1999/xlink"><clipPath id="a"><path d="m0 0h236v33h-236z"/></clipPath><g clip-path="url(#a)" fill="#fff"><path d="m13.3649 24.2123-3.45502-3.4639 4.24712-4.258h-5.05609c-5.35943 0-9.10091-3.5991-9.10091-8.78652v-6.910911h5.20774l.01685 6.218121c0 2.70354 1.76963 4.59601 4.31451 4.59601h4.6179l-4.24712-4.25806 3.45502-3.46391 6.5054 6.52227c2.0056 2.0108 2.0056 5.2719 0 7.2827z"/><path d="m24.6562.8125h5.9999l7.247 17.4209 7.2808-17.4209h5.9661v24.9401h-4.9718v-15.2074l-6.2864 15.2074h-3.9437l-6.3201-15.2074v15.2074h-4.9718z"/><path d="m53.6621 16.7791c0-5.3394 3.9437-9.25957 9.438-9.25957 5.5111 0 9.4548 3.92017 9.4548 9.25957 0 5.3395-3.9437 9.2596-9.4548 9.2596-5.4943-.0169-9.438-3.9201-9.438-9.2596zm13.921 0c0-2.9907-1.8202-5.0184-4.483-5.0184-2.6629 0-4.4662 2.0277-4.4662 5.0184 0 2.957 1.8033 4.9847 4.4662 4.9847 2.6797 0 4.483-2.0446 4.483-4.9847z"/><path d="m74.5762 7.78989h4.9718v2.50081c.9943-1.74045 2.983-2.77117 5.4268-2.77117 4.0448 0 6.674 2.92317 6.674 7.04607v11.1859h-4.9718v-10.0876c0-2.1797-1.382-3.7342-3.4381-3.7342-2.1741 0-3.6909 1.6728-3.6909 3.9877v9.8341h-4.9718z"/><path d="m111.554 19.6529c-.708 3.8863-4.112 6.3702-8.528 6.3702-6.067 0-9.2018-4.765-9.2018-9.2934 0-4.5622 2.764-9.22579 8.8478-9.22579 6.32 0 8.848 4.66359 8.848 8.75269 0 .6759-.033 1.2166-.067 1.6052h-12.8592c.3539 2.5346 1.9552 4.0891 4.4322 4.0891 1.989 0 3.304-.7773 3.691-2.3149h4.837zm-12.8928-4.917h7.9208c-.134-1.9939-1.533-3.5991-3.91-3.5991-2.241.0169-3.5895 1.1152-4.0108 3.5991z"/><path d="m123.233 25.6649-2.511 7.3333h-4.736l2.63-7.4009-6.489-17.79261h5.039l3.758 11.55761 3.742-11.55761h5.073z"/><path d="m152.98.8125v24.9401h-5.36v-10.4424h-10.23v10.4424h-5.326v-24.9401h5.326v9.9017h10.23v-9.9017z"/><path d="m173.187 19.6529c-.708 3.8863-4.112 6.3702-8.528 6.3702-6.067 0-9.202-4.765-9.202-9.2934 0-4.5622 2.764-9.22579 8.848-9.22579 6.32 0 8.848 4.66359 8.848 8.75269 0 .6759-.033 1.2166-.067 1.6052h-12.859c.354 2.5346 1.955 4.0891 4.432 4.0891 1.989 0 3.303-.7773 3.691-2.3149h4.837zm-12.893-4.917h7.921c-.135-1.9939-1.534-3.5822-3.91-3.5822-2.241 0-3.59 1.0983-4.011 3.5822z"/><path d="m180.889 0h-4.938v25.7343h4.938z"/><path d="m184.057 7.80678h4.938v1.96006c1.062-1.38556 2.848-2.24731 5.14-2.24731 5.006 0 8.208 3.66667 8.208 9.25957 0 5.593-3.489 9.2596-8.629 9.2596-2.023 0-3.759-.6759-4.719-1.8924v8.8709h-4.938zm13.415 8.97232c0-3.0245-1.77-5.0184-4.365-5.0184-2.663 0-4.399 1.9939-4.399 5.0184 0 2.9908 1.736 4.9847 4.399 4.9847 2.595 0 4.365-1.9939 4.365-4.9847z"/><path d="m221.843 19.6529c-.708 3.8863-4.112 6.3702-8.528 6.3702-6.067 0-9.202-4.765-9.202-9.2934 0-4.5622 2.764-9.22579 8.848-9.22579 6.32 0 8.848 4.66359 8.848 8.75269 0 .6759-.033 1.2166-.067 1.6052h-12.859c.354 2.5346 1.955 4.0891 4.432 4.0891 1.989 0 3.304-.7773 3.691-2.3149h4.837zm-12.893-4.917h7.921c-.134-1.9939-1.533-3.5991-3.91-3.5991-2.241.0169-3.589 1.1152-4.011 3.5991z"/><path d="m233.067 11.9276c-2.444 0-3.556 2.0276-3.556 5.086v8.7189h-4.972v-17.92781h4.972v2.99081c.96-2.24734 2.309-2.99081 4.483-2.99081h2.022v4.12291z"/></g></svg>